<svg width="818.9157470703125px" height="83.35999908447266px" xmlns="http://www.w3.org/2000/svg" viewBox="-159.45787353515624 33.32000045776367 818.9157470703125 83.35999908447266" style="background: rgba(0, 0, 0, 0);" preserveAspectRatio="xMidYMid"><defs><linearGradient id="editing-rainbow-gradient" x1="0" x2="1" y1="0.5" y2="0.5" gradientUnits="objectBoundingBox"><stop offset="0.00" stop-color="#f00"></stop><stop offset="0.17" stop-color="#f90"></stop><stop offset="0.34" stop-color="#ff4"></stop><stop offset="0.51" stop-color="#9f0"></stop><stop offset="0.68" stop-color="#09f"></stop><stop offset="0.85" stop-color="#00f"></stop><stop offset="1.00" stop-color="#90f"></stop></linearGradient><filter id="editing-rainbow" x="-100%" y="-100%" width="300%" height="300%"><feMorphology operator="dilate" radius="1,2" in="SourceGraphic" result="dilate"></feMorphology><feColorMatrix in="dilate" result="color" type="matrix" values="0.7 0 0 0 0  0 0.7 0 0 0  0 0 0.7 0 0  0 0 0 1 0"></feColorMatrix><feOffset dy="2" result="offset"></feOffset><feGaussianBlur stdDeviation="3"></feGaussianBlur><feOffset dy="3"></feOffset><feColorMatrix result="blur" type="matrix" values="0.7 0 0 0 0  0 0.7 0 0 0  0 0 0.7 0 0  0 0 0 1 0"></feColorMatrix><feMerge><feMergeNode in="blur"></feMergeNode><feMergeNode in="offset"></feMergeNode><feMergeNode in="SourceGraphic"></feMergeNode></feMerge></filter></defs><g filter="url(#editing-rainbow)"><g transform="translate(-43.68823981285095, 93.62000274658203)"><path d="M1.68-24.80L1.68-24.80L1.68-24.80Q2.24-25.92 3.46-26.54L3.46-26.54L3.46-26.54Q4.68-27.16 6.36-27.16L6.36-27.16L6.36-27.16Q9-27.16 10.58-25.26L10.58-25.26L10.58-25.26Q12.16-23.36 12.16-19.20L12.16-19.20L12.16-4.92L21.32-26.36L26.04-26.36L27.12-6.12L27-4.96L36.52-26.36L42-26.36L29.20 0L20.68 0L19.88-12.16L14.60 0L4.96 0L3.76-19.20L3.76-19.20Q3.64-21.36 3.06-22.78L3.06-22.78L3.06-22.78Q2.48-24.20 1.68-24.80ZM55.80-6.76L55.80-6.76L55.80-6.76Q56.80-6.08 56.80-4.58L56.80-4.58L56.80-4.58Q56.80-3.08 56.04-2.12L56.04-2.12L56.04-2.12Q55.28-1.16 54.04-0.52L54.04-0.52L54.04-0.52Q51.48 0.80 48.72 0.80L48.72 0.80L48.72 0.80Q45.96 0.80 44.34 0.20L44.34 0.20L44.34 0.20Q42.72-0.40 41.64-1.52L41.64-1.52L41.64-1.52Q39.52-3.64 39.52-7.52L39.52-7.52L39.52-7.52Q39.52-13.56 42.80-17.24L42.80-17.24L42.80-17.24Q46.32-21.20 52.44-21.20L52.44-21.20L52.44-21.20Q56.24-21.20 58.12-19.60L58.12-19.60L58.12-19.60Q59.52-18.40 59.52-16.44L59.52-16.44L59.52-16.44Q59.52-9.40 47.36-9.40L47.36-9.40L47.36-9.40Q47.20-8.36 47.20-7.48L47.20-7.48L47.20-7.48Q47.20-5.64 48.02-4.94L48.02-4.94L48.02-4.94Q48.84-4.24 50.36-4.24L50.36-4.24L50.36-4.24Q51.88-4.24 53.50-4.94L53.50-4.94L53.50-4.94Q55.12-5.64 55.80-6.76ZM47.64-11.12L47.64-11.12L47.64-11.12Q50.48-11.12 52.12-12.88L52.12-12.88L52.12-12.88Q53.76-14.56 53.76-17.24L53.76-17.24L53.76-17.24Q53.76-18.16 53.42-18.66L53.42-18.66L53.42-18.66Q53.08-19.16 52.40-19.16L52.40-19.16L52.40-19.16Q51.72-19.16 51.14-18.90L51.14-18.90L51.14-18.90Q50.56-18.64 49.96-17.76L49.96-17.76L49.96-17.76Q48.48-15.76 47.64-11.12ZM70.44-2.20L70.44-2.20L70.44-2.20Q69.20 0.80 65.24 0.80L65.24 0.80L65.24 0.80Q63.24 0.80 61.96-0.60L61.96-0.60L61.96-0.60Q60.92-1.76 60.92-3.08L60.92-3.08L60.92-3.08Q60.92-6.08 62.32-12.64L62.32-12.64L65.24-28L73.36-28.80L69.48-8.56L69.48-8.56Q68.80-5.60 68.80-4.56L68.80-4.56L68.80-4.56Q68.80-2.28 70.44-2.20ZM93.48-16.64L93.48-16.64L93.48-16.64Q93.48-14.96 92.08-13.92L92.08-13.92L92.08-13.92Q90.68-12.88 88.40-12.88L88.40-12.88L88.40-12.88Q87.44-12.88 86.88-13.16L86.88-13.16L86.88-13.16Q87.32-14.20 87.46-15.50L87.46-15.50L87.46-15.50Q87.60-16.80 87.60-17.16L87.60-17.16L87.60-17.16Q87.60-18.84 86.44-18.84L86.44-18.84L86.44-18.84Q85.64-18.84 84.74-17.84L84.74-17.84L84.74-17.84Q83.84-16.84 83.08-15.28L83.08-15.28L83.08-15.28Q81.40-11.68 81.40-8.04L81.40-8.04L81.40-8.04Q81.40-6.04 82.16-5.14L82.16-5.14L82.16-5.14Q82.92-4.24 84.60-4.24L84.60-4.24L84.60-4.24Q86.92-4.24 88.76-6.16L88.76-6.16L88.76-6.16Q89.28-6.76 89.56-7.44L89.56-7.44L89.56-7.44Q91.08-6.64 91.08-4.44L91.08-4.44L91.08-4.44Q91.08-2.20 88.60-0.72L88.60-0.72L88.60-0.72Q86.04 0.80 81.96 0.80L81.96 0.80L81.96 0.80Q73.84 0.80 73.84-7.80L73.84-7.80L73.84-7.80Q73.84-14.08 77.40-17.68L77.40-17.68L77.40-17.68Q80.84-21.20 87.16-21.20L87.16-21.20L87.16-21.20Q93.48-21.20 93.48-16.64ZM103.28 0.80L103.28 0.80L103.28 0.80Q94.48 0.80 94.48-7.48L94.48-7.48L94.48-7.48Q94.48-13.36 97.72-17.16L97.72-17.16L97.72-17.16Q101.16-21.20 107.12-21.20L107.12-21.20L107.12-21.20Q111.44-21.20 113.64-19.20L113.64-19.20L113.64-19.20Q115.84-17.20 115.84-13L115.84-13L115.84-13Q115.84-6.60 112.40-2.88L112.40-2.88L112.40-2.88Q109.04 0.80 103.28 0.80ZM104.32-16.60L104.32-16.60L104.32-16.60Q103.84-15.52 103.46-13.90L103.46-13.90L103.46-13.90Q103.08-12.28 102.60-9.72L102.60-9.72L102.60-9.72Q102.12-7.16 102.12-4L102.12-4L102.12-4Q102.12-2.96 102.46-2.28L102.46-2.28L102.46-2.28Q102.80-1.60 103.72-1.60L103.72-1.60L103.72-1.60Q104.64-1.60 105.22-2.04L105.22-2.04L105.22-2.04Q105.80-2.48 106.24-3.52L106.24-3.52L106.24-3.52Q107.04-5.36 107.68-8.78L107.68-8.78L107.68-8.78Q108.32-12.20 108.38-13.68L108.38-13.68L108.38-13.68Q108.44-15.16 108.44-16.26L108.44-16.26L108.44-16.26Q108.44-17.36 108.12-18.08L108.12-18.08L108.12-18.08Q107.80-18.80 106.90-18.80L106.90-18.80L106.90-18.80Q106-18.80 105.40-18.24L105.40-18.24L105.40-18.24Q104.80-17.68 104.32-16.60ZM147 0.80L147 0.80L147 0.80Q142.16 0.80 142.16-2.96L142.16-2.96L142.16-2.96Q142.16-4.60 142.86-7.78L142.86-7.78L142.86-7.78Q143.56-10.96 143.80-12.24L143.80-12.24L143.80-12.24Q144.36-15.16 144.36-16.08L144.36-16.08L144.36-16.08Q144.36-18.12 142.84-18.12L142.84-18.12L142.84-18.12Q141.84-18.12 140.88-16.74L140.88-16.74L140.88-16.74Q139.92-15.36 139.48-12.60L139.48-12.60L137 0L129.20 0.80L131.36-10.08L131.36-10.08Q131.72-11.88 132.04-13.92L132.04-13.92L132.04-13.92Q132.36-15.96 132.36-16.28L132.36-16.28L132.36-16.28Q132.36-18.12 131-18.12L131-18.12L131-18.12Q130.08-18.12 129.08-16.76L129.08-16.76L129.08-16.76Q128.08-15.40 127.52-12.60L127.52-12.60L125.08 0L117.20 0.80L121.40-20.40L127.92-21.20L127.24-17.16L127.24-17.16Q128.28-19.32 130.20-20.26L130.20-20.26L130.20-20.26Q132.12-21.20 135.12-21.20L135.12-21.20L135.12-21.20Q136.84-21.20 137.96-20.36L137.96-20.36L137.96-20.36Q139.08-19.52 139.44-18.16L139.44-18.16L139.44-18.16Q140.12-19.56 141.86-20.38L141.86-20.38L141.86-20.38Q143.60-21.20 145.74-21.20L145.74-21.20L145.74-21.20Q147.88-21.20 148.94-20.74L148.94-20.74L148.94-20.74Q150-20.28 150.64-19.52L150.64-19.52L150.64-19.52Q151.72-18.12 151.72-15.56L151.72-15.56L151.72-15.56Q151.72-13.04 150.64-7.80L150.64-7.80L150.64-7.80Q150.08-5.24 150.08-4.30L150.08-4.30L150.08-4.30Q150.08-3.36 150.62-2.80L150.62-2.80L150.62-2.80Q151.16-2.24 151.96-2.16L151.96-2.16L151.96-2.16Q151.56-0.80 150.18 0L150.18 0L150.18 0Q148.80 0.80 147 0.80ZM171.24-6.76L171.24-6.76L171.24-6.76Q172.24-6.08 172.24-4.58L172.24-4.58L172.24-4.58Q172.24-3.08 171.48-2.12L171.48-2.12L171.48-2.12Q170.72-1.16 169.48-0.52L169.48-0.52L169.48-0.52Q166.92 0.80 164.16 0.80L164.16 0.80L164.16 0.80Q161.40 0.80 159.78 0.20L159.78 0.20L159.78 0.20Q158.16-0.40 157.08-1.52L157.08-1.52L157.08-1.52Q154.96-3.64 154.96-7.52L154.96-7.52L154.96-7.52Q154.96-13.56 158.24-17.24L158.24-17.24L158.24-17.24Q161.76-21.20 167.88-21.20L167.88-21.20L167.88-21.20Q171.68-21.20 173.56-19.60L173.56-19.60L173.56-19.60Q174.96-18.40 174.96-16.44L174.96-16.44L174.96-16.44Q174.96-9.40 162.80-9.40L162.80-9.40L162.80-9.40Q162.64-8.36 162.64-7.48L162.64-7.48L162.64-7.48Q162.64-5.64 163.46-4.94L163.46-4.94L163.46-4.94Q164.28-4.24 165.80-4.24L165.80-4.24L165.80-4.24Q167.32-4.24 168.94-4.94L168.94-4.94L168.94-4.94Q170.56-5.64 171.24-6.76ZM163.08-11.12L163.08-11.12L163.08-11.12Q165.92-11.12 167.56-12.88L167.56-12.88L167.56-12.88Q169.20-14.56 169.20-17.24L169.20-17.24L169.20-17.24Q169.20-18.16 168.86-18.66L168.86-18.66L168.86-18.66Q168.52-19.16 167.84-19.16L167.84-19.16L167.84-19.16Q167.16-19.16 166.58-18.90L166.58-18.90L166.58-18.90Q166-18.64 165.40-17.76L165.40-17.76L165.40-17.76Q163.92-15.76 163.08-11.12ZM185.20-4L185.20-4L185.20-4Q185.20-5.08 185.76-7.80L185.76-7.80L187.88-18.60L185.52-18.60L185.68-19.80L185.68-19.80Q190.48-21.24 195.12-24.76L195.12-24.76L197.04-24.76L196.08-20.40L199.20-20.40L198.84-18.60L195.76-18.60L193.72-7.80L193.72-7.80Q193.20-5.32 193.20-4.48L193.20-4.48L193.20-4.48Q193.20-2.56 194.88-2.16L194.88-2.16L194.88-2.16Q194.48-0.80 193.04 0L193.04 0L193.04 0Q191.60 0.80 189.56 0.80L189.56 0.80L189.56 0.80Q187.52 0.80 186.36-0.48L186.36-0.48L186.36-0.48Q185.20-1.76 185.20-4ZM207.56 0.80L207.56 0.80L207.56 0.80Q198.76 0.80 198.76-7.48L198.76-7.48L198.76-7.48Q198.76-13.36 202.00-17.16L202.00-17.16L202.00-17.16Q205.44-21.20 211.40-21.20L211.40-21.20L211.40-21.20Q215.72-21.20 217.92-19.20L217.92-19.20L217.92-19.20Q220.12-17.20 220.12-13L220.12-13L220.12-13Q220.12-6.60 216.68-2.88L216.68-2.88L216.68-2.88Q213.32 0.80 207.56 0.80ZM208.60-16.60L208.60-16.60L208.60-16.60Q208.12-15.52 207.74-13.90L207.74-13.90L207.74-13.90Q207.36-12.28 206.88-9.72L206.88-9.72L206.88-9.72Q206.40-7.16 206.40-4L206.40-4L206.40-4Q206.40-2.96 206.74-2.28L206.74-2.28L206.74-2.28Q207.08-1.60 208.00-1.60L208.00-1.60L208.00-1.60Q208.92-1.60 209.50-2.04L209.50-2.04L209.50-2.04Q210.08-2.48 210.52-3.52L210.52-3.52L210.52-3.52Q211.32-5.36 211.96-8.78L211.96-8.78L211.96-8.78Q212.60-12.20 212.66-13.68L212.66-13.68L212.66-13.68Q212.72-15.16 212.72-16.26L212.72-16.26L212.72-16.26Q212.72-17.36 212.40-18.08L212.40-18.08L212.40-18.08Q212.08-18.80 211.18-18.80L211.18-18.80L211.18-18.80Q210.28-18.80 209.68-18.24L209.68-18.24L209.68-18.24Q209.08-17.68 208.60-16.60ZM259.52 0.80L259.52 0.80L259.52 0.80Q254.68 0.80 254.68-2.96L254.68-2.96L254.68-2.96Q254.68-4.60 255.38-7.78L255.38-7.78L255.38-7.78Q256.08-10.96 256.32-12.24L256.32-12.24L256.32-12.24Q256.88-15.16 256.88-16.08L256.88-16.08L256.88-16.08Q256.88-18.12 255.36-18.12L255.36-18.12L255.36-18.12Q254.36-18.12 253.40-16.74L253.40-16.74L253.40-16.74Q252.44-15.36 252.00-12.60L252.00-12.60L249.52 0L241.72 0.80L243.88-10.08L243.88-10.08Q244.24-11.88 244.56-13.92L244.56-13.92L244.56-13.92Q244.88-15.96 244.88-16.28L244.88-16.28L244.88-16.28Q244.88-18.12 243.52-18.12L243.52-18.12L243.52-18.12Q242.60-18.12 241.60-16.76L241.60-16.76L241.60-16.76Q240.60-15.40 240.04-12.60L240.04-12.60L237.60 0L229.72 0.80L233.92-20.40L240.44-21.20L239.76-17.16L239.76-17.16Q240.80-19.32 242.72-20.26L242.72-20.26L242.72-20.26Q244.64-21.20 247.64-21.20L247.64-21.20L247.64-21.20Q249.36-21.20 250.48-20.36L250.48-20.36L250.48-20.36Q251.60-19.52 251.96-18.16L251.96-18.16L251.96-18.16Q252.64-19.56 254.38-20.38L254.38-20.38L254.38-20.38Q256.12-21.20 258.26-21.20L258.26-21.20L258.26-21.20Q260.40-21.20 261.46-20.74L261.46-20.74L261.46-20.74Q262.52-20.28 263.16-19.52L263.16-19.52L263.16-19.52Q264.24-18.12 264.24-15.56L264.24-15.56L264.24-15.56Q264.24-13.04 263.16-7.80L263.16-7.80L263.16-7.80Q262.60-5.24 262.60-4.30L262.60-4.30L262.60-4.30Q262.60-3.36 263.14-2.80L263.14-2.80L263.14-2.80Q263.68-2.24 264.48-2.16L264.48-2.16L264.48-2.16Q264.08-0.80 262.70 0L262.70 0L262.70 0Q261.32 0.80 259.52 0.80ZM280.28-4.52L280.28-4.52L280.28-4.52Q278.20-2.36 274.40-2.36L274.40-2.36L274.40-2.36Q269.64-2.36 268.64-5.84L268.64-5.84L268.64-5.84Q268.32-6.88 268.32-8.04L268.32-8.04L268.32-8.04Q268.32-9.20 268.56-10.40L268.56-10.40L270.44-20.40L278.56-21.20L276.36-9.56L276.36-9.56Q276.28-9.04 276.16-8.48L276.16-8.48L276.16-8.48Q276.04-7.92 276.04-7.34L276.04-7.34L276.04-7.34Q276.04-6.76 276.24-6.38L276.24-6.38L276.24-6.38Q276.44-6 276.72-5.76L276.72-5.76L276.72-5.76Q277.20-5.44 278.06-5.44L278.06-5.44L278.06-5.44Q278.92-5.44 279.66-6.48L279.66-6.48L279.66-6.48Q280.40-7.52 280.76-9.32L280.76-9.32L282.96-20.40L290.84-21.20L287.84-5.48L287.84-5.48Q286.36 2.20 283.32 5.24L283.32 5.24L283.32 5.24Q281.76 6.80 279.74 7.42L279.74 7.42L279.74 7.42Q277.72 8.04 275.12 8.04L275.12 8.04L275.12 8.04Q270.92 8.04 268.52 6.72L268.52 6.72L268.52 6.72Q266.12 5.40 266.12 3.20L266.12 3.20L266.12 3.20Q266.12 1.56 267.36 0.62L267.36 0.62L267.36 0.62Q268.60-0.32 270.52-0.32L270.52-0.32L270.52-0.32Q272.20-0.32 273.48 0.40L273.48 0.40L273.48 0.40Q274.24 0.84 274.60 1.40L274.60 1.40L274.60 1.40Q273.68 2.20 273.68 3.52L273.68 3.52L273.68 3.52Q273.68 5.28 275.28 5.28L275.28 5.28L275.28 5.28Q277.92 5.28 279.44-0.80L279.44-0.80L279.44-0.80Q279.88-2.60 280.28-4.52ZM316.72-12.88L324.80-13.60L324.80-13.60Q321.92-7.28 321.92 0.04L321.92 0.04L321.92 0.04Q320.84 0.80 319.26 0.80L319.26 0.80L319.26 0.80Q317.68 0.80 316.68 0.06L316.68 0.06L316.68 0.06Q315.68-0.68 315.48-1.44L315.48-1.44L315.48-1.44Q314.48-0.40 312.86 0.20L312.86 0.20L312.86 0.20Q311.24 0.80 309.52 0.80L309.52 0.80L309.52 0.80Q307.80 0.80 306.30 0.24L306.30 0.24L306.30 0.24Q304.80-0.32 303.64-1.56L303.64-1.56L303.64-1.56Q301.08-4.28 301.08-9.44L301.08-9.44L301.08-9.44Q301.08-17.44 305.36-22.24L305.36-22.24L305.36-22.24Q309.76-27.20 317.56-27.20L317.56-27.20L317.56-27.20Q322.96-27.20 324.88-24.40L324.88-24.40L324.88-24.40Q325.48-23.52 325.48-22.46L325.48-22.46L325.48-22.46Q325.48-21.40 325.02-20.50L325.02-20.50L325.02-20.50Q324.56-19.60 323.84-18.88L323.84-18.88L323.84-18.88Q322.12-17.28 320.00-17.28L320.00-17.28L320.00-17.28Q319.16-17.28 318.36-17.56L318.36-17.56L318.36-17.56Q318.52-18.76 318.52-20.16L318.52-20.16L318.52-20.16Q318.52-21.56 318.42-22.20L318.42-22.20L318.42-22.20Q318.32-22.84 318.08-23.36L318.08-23.36L318.08-23.36Q317.56-24.44 316.42-24.44L316.42-24.44L316.42-24.44Q315.28-24.44 314.02-23.22L314.02-23.22L314.02-23.22Q312.76-22 311.76-20L311.76-20L311.76-20Q309.56-15.52 309.56-10.12L309.56-10.12L309.56-10.12Q309.56-7.64 310.52-5.88L310.52-5.88L310.52-5.88Q311.56-3.96 313.40-3.96L313.40-3.96L313.40-3.96Q314.04-3.96 314.62-4.28L314.62-4.28L314.62-4.28Q315.20-4.60 315.44-4.84L315.44-4.84L316.72-12.88ZM336.36-2.20L336.36-2.20L336.36-2.20Q335.12 0.80 331.16 0.80L331.16 0.80L331.16 0.80Q329.12 0.80 327.84-0.60L327.84-0.60L327.84-0.60Q326.76-1.84 326.76-3.08L326.76-3.08L326.76-3.08Q326.76-6.32 328.24-12.64L328.24-12.64L329.72-20.40L337.84-21.20L335.40-8.56L335.40-8.56Q334.72-5.60 334.72-4.56L334.72-4.56L334.72-4.56Q334.72-2.28 336.36-2.20ZM330.44-25.96L330.44-25.96L330.44-25.96Q330.44-27.52 331.74-28.36L331.74-28.36L331.74-28.36Q333.04-29.20 334.92-29.20L334.92-29.20L334.92-29.20Q336.80-29.20 337.94-28.36L337.94-28.36L337.94-28.36Q339.08-27.52 339.08-25.96L339.08-25.96L339.08-25.96Q339.08-24.40 337.82-23.60L337.82-23.60L337.82-23.60Q336.56-22.80 334.68-22.80L334.68-22.80L334.68-22.80Q332.80-22.80 331.62-23.60L331.62-23.60L331.62-23.60Q330.44-24.40 330.44-25.96ZM340.40-4L340.40-4L340.40-4Q340.40-5.08 340.96-7.80L340.96-7.80L343.08-18.60L340.72-18.60L340.88-19.80L340.88-19.80Q345.68-21.24 350.32-24.76L350.32-24.76L352.24-24.76L351.28-20.40L354.40-20.40L354.04-18.60L350.96-18.60L348.92-7.80L348.92-7.80Q348.40-5.32 348.40-4.48L348.40-4.48L348.40-4.48Q348.40-2.56 350.08-2.16L350.08-2.16L350.08-2.16Q349.68-0.80 348.24 0L348.24 0L348.24 0Q346.80 0.80 344.76 0.80L344.76 0.80L344.76 0.80Q342.72 0.80 341.56-0.48L341.56-0.48L341.56-0.48Q340.40-1.76 340.40-4ZM369.12-3L369.12-3L369.12-3Q369.12-5.80 370.24-11.40L370.24-11.40L364.32-11.40L362.12 0L353.76 0L358.84-26.40L367.28-26.40L364.96-14.60L370.88-14.60L373.08-26.40L381.52-26.40L381.52-26.40Q380.96-23.44 380.24-20.12L380.24-20.12L378.88-13.60L378.88-13.60Q377.36-6 377.36-2.68L377.36-2.68L377.36-2.68Q377.36-1.32 377.80-0.56L377.80-0.56L377.80-0.56Q375.80 0.80 373.46 0.80L373.46 0.80L373.46 0.80Q371.12 0.80 370.12-0.32L370.12-0.32L370.12-0.32Q369.12-1.44 369.12-3ZM395.32-1.68L395.32-1.68L395.32-1.68Q393.40 0.80 388.64 0.80L388.64 0.80L388.64 0.80Q386.16 0.80 384.36-0.70L384.36-0.70L384.36-0.70Q382.56-2.20 382.56-4.36L382.56-4.36L382.56-4.36Q382.56-5.56 382.68-6.16L382.68-6.16L385.36-20.40L393.48-21.20L390.56-5.76L390.56-5.76Q390.40-4.88 390.40-4.36L390.40-4.36L390.40-4.36Q390.40-2.04 391.80-2.04L391.80-2.04L391.80-2.04Q393.36-2.04 394.48-4.16L394.48-4.16L394.48-4.16Q394.84-4.84 395.00-5.72L395.00-5.72L397.84-20.40L405.72-21.20L402.76-5.60L402.76-5.60Q402.64-5 402.64-4.36L402.64-4.36L402.64-4.36Q402.64-3.72 403.00-3.02L403.00-3.02L403.00-3.02Q403.36-2.32 404.52-2.16L404.52-2.16L404.52-2.16Q404.28-1.20 403.44-0.56L403.44-0.56L403.44-0.56Q401.68 0.80 399.78 0.80L399.78 0.80L399.78 0.80Q397.88 0.80 396.76 0.12L396.76 0.12L396.76 0.12Q395.64-0.56 395.32-1.68ZM407.36-1.92L407.36-1.92L412.32-28L420.44-28.80L419.20-22.68L419.20-22.68Q418.76-20.80 418.20-19.48L418.20-19.48L418.20-19.48Q419.08-20.60 421.00-21.04L421.00-21.04L421.00-21.04Q421.56-21.20 422.24-21.20L422.24-21.20L422.24-21.20Q425.96-21.20 428.00-18.94L428.00-18.94L428.00-18.94Q430.04-16.68 430.04-12.32L430.04-12.32L430.04-12.32Q430.04-6.64 426.80-3.08L426.80-3.08L426.80-3.08Q423.32 0.80 417.00 0.80L417.00 0.80L417.00 0.80Q412.64 0.80 409.36-0.64L409.36-0.64L409.36-0.64Q408.20-1.16 407.36-1.92ZM417.52-14L415.40-2.28L415.40-2.28Q416.24-1.56 417.28-1.56L417.28-1.56L417.28-1.56Q418.32-1.56 418.92-1.96L418.92-1.96L418.92-1.96Q419.52-2.36 419.96-3.16L419.96-3.16L419.96-3.16Q421.16-5.32 422.12-11.92L422.12-11.92L422.12-11.92Q422.40-13.80 422.40-15.68L422.40-15.68L422.40-15.68Q422.40-17.56 421.98-18.16L421.98-18.16L421.98-18.16Q421.56-18.76 420.76-18.76L420.76-18.76L420.76-18.76Q418.32-18.76 417.52-14L417.52-14ZM459.32-2.74L459.32-2.74L459.32-2.74Q457.64-1.04 455.34-0.12L455.34-0.12L455.34-0.12Q453.04 0.80 450.76 0.80L450.76 0.80L450.76 0.80Q448.48 0.80 447.68 0.40L447.68 0.40L446.44 7.20L438.32 8L443.84-20.40L450.36-21.08L449.84-18.32L449.84-18.32Q451.52-21.16 455.00-21.16L455.00-21.16L455.00-21.16Q458.92-21.16 461.00-18.64L461.00-18.64L461.00-18.64Q462.84-16.36 462.84-12.88L462.84-12.88L462.84-12.88Q462.84-9.40 461.92-6.92L461.92-6.92L461.92-6.92Q461.00-4.44 459.32-2.74ZM450.28-13.96L448.16-2.24L448.16-2.24Q449.00-1.52 450.04-1.52L450.04-1.52L450.04-1.52Q451.08-1.52 451.68-1.92L451.68-1.92L451.68-1.92Q452.28-2.32 452.72-3.12L452.72-3.12L452.72-3.12Q453.92-5.28 454.88-11.84L454.88-11.84L454.88-11.84Q455.16-13.76 455.16-15.64L455.16-15.64L455.16-15.64Q455.16-17.52 454.74-18.12L454.74-18.12L454.74-18.12Q454.32-18.72 453.52-18.72L453.52-18.72L453.52-18.72Q451.08-18.72 450.28-13.96L450.28-13.96ZM477.76-11.24L477.76-11.24L477.76-11.24Q479.20-13.80 479.20-16.40L479.20-16.40L479.20-16.40Q479.20-18.12 477.96-18.12L477.96-18.12L477.96-18.12Q477.00-18.12 476.00-16.48L476.00-16.48L476.00-16.48Q474.96-14.84 474.64-12.72L474.64-12.72L472.56 0L464.28 0.80L468.36-20.40L474.96-21.20L474.24-17.16L474.24-17.16Q476.20-21.20 480.60-21.20L480.60-21.20L480.60-21.20Q482.92-21.20 484.18-20L484.18-20L484.18-20Q485.44-18.80 485.44-16.34L485.44-16.34L485.44-16.34Q485.44-13.88 483.82-12.32L483.82-12.32L483.82-12.32Q482.20-10.76 479.44-10.76L479.44-10.76L479.44-10.76Q478.24-10.76 477.76-11.24ZM494.80 0.80L494.80 0.80L494.80 0.80Q486.00 0.80 486.00-7.48L486.00-7.48L486.00-7.48Q486.00-13.36 489.24-17.16L489.24-17.16L489.24-17.16Q492.68-21.20 498.64-21.20L498.64-21.20L498.64-21.20Q502.96-21.20 505.16-19.20L505.16-19.20L505.16-19.20Q507.36-17.20 507.36-13L507.36-13L507.36-13Q507.36-6.60 503.92-2.88L503.92-2.88L503.92-2.88Q500.56 0.80 494.80 0.80ZM495.84-16.60L495.84-16.60L495.84-16.60Q495.36-15.52 494.98-13.90L494.98-13.90L494.98-13.90Q494.60-12.28 494.12-9.72L494.12-9.72L494.12-9.72Q493.64-7.16 493.64-4L493.64-4L493.64-4Q493.64-2.96 493.98-2.28L493.98-2.28L493.98-2.28Q494.32-1.60 495.24-1.60L495.24-1.60L495.24-1.60Q496.16-1.60 496.74-2.04L496.74-2.04L496.74-2.04Q497.32-2.48 497.76-3.52L497.76-3.52L497.76-3.52Q498.56-5.36 499.20-8.78L499.20-8.78L499.20-8.78Q499.84-12.20 499.90-13.68L499.90-13.68L499.90-13.68Q499.96-15.16 499.96-16.26L499.96-16.26L499.96-16.26Q499.96-17.36 499.64-18.08L499.64-18.08L499.64-18.08Q499.32-18.80 498.42-18.80L498.42-18.80L498.42-18.80Q497.52-18.80 496.92-18.24L496.92-18.24L496.92-18.24Q496.32-17.68 495.84-16.60ZM525.32-23.20L525.32-23.20L525.32-23.20Q525.88-24.16 525.88-25.20L525.88-25.20L525.88-25.20Q525.88-27.04 524.76-27.04L524.76-27.04L524.76-27.04Q523.04-27.04 522.32-23.52L522.32-23.52L521.72-20.40L525.36-20.40L525.12-18.60L521.36-18.60L517.76 0L509.68 0.80L513.52-18.60L510.68-18.60L511.04-20.40L513.84-20.40L514.68-23.56L514.68-23.56Q515.40-26.48 518.48-27.84L518.48-27.84L518.48-27.84Q520.72-28.80 524.48-28.80L524.48-28.80L524.48-28.80Q528.24-28.80 529.92-27.84L529.92-27.84L529.92-27.84Q531.60-26.88 531.60-25.60L531.60-25.60L531.60-25.60Q531.60-24.32 530.60-23.52L530.60-23.52L530.60-23.52Q529.60-22.72 528.48-22.72L528.48-22.72L528.48-22.72Q526.28-22.72 525.32-23.20ZM538.04-2.20L538.04-2.20L538.04-2.20Q536.80 0.80 532.84 0.80L532.84 0.80L532.84 0.80Q530.80 0.80 529.52-0.60L529.52-0.60L529.52-0.60Q528.44-1.84 528.44-3.08L528.44-3.08L528.44-3.08Q528.44-6.32 529.92-12.64L529.92-12.64L531.40-20.40L539.52-21.20L537.08-8.56L537.08-8.56Q536.40-5.60 536.40-4.56L536.40-4.56L536.40-4.56Q536.40-2.28 538.04-2.20ZM532.12-25.96L532.12-25.96L532.12-25.96Q532.12-27.52 533.42-28.36L533.42-28.36L533.42-28.36Q534.72-29.20 536.60-29.20L536.60-29.20L536.60-29.20Q538.48-29.20 539.62-28.36L539.62-28.36L539.62-28.36Q540.76-27.52 540.76-25.96L540.76-25.96L540.76-25.96Q540.76-24.40 539.50-23.60L539.50-23.60L539.50-23.60Q538.24-22.80 536.36-22.80L536.36-22.80L536.36-22.80Q534.48-22.80 533.30-23.60L533.30-23.60L533.30-23.60Q532.12-24.40 532.12-25.96ZM551.00-2.20L551.00-2.20L551.00-2.20Q549.76 0.80 545.80 0.80L545.80 0.80L545.80 0.80Q543.80 0.80 542.52-0.60L542.52-0.60L542.52-0.60Q541.48-1.76 541.48-3.08L541.48-3.08L541.48-3.08Q541.48-6.08 542.88-12.64L542.88-12.64L545.80-28L553.92-28.80L550.04-8.56L550.04-8.56Q549.36-5.60 549.36-4.56L549.36-4.56L549.36-4.56Q549.36-2.28 551.00-2.20ZM570.60-6.76L570.60-6.76L570.60-6.76Q571.60-6.08 571.60-4.58L571.60-4.58L571.60-4.58Q571.60-3.08 570.84-2.12L570.84-2.12L570.84-2.12Q570.08-1.16 568.84-0.52L568.84-0.52L568.84-0.52Q566.28 0.80 563.52 0.80L563.52 0.80L563.52 0.80Q560.76 0.80 559.14 0.20L559.14 0.20L559.14 0.20Q557.52-0.40 556.44-1.52L556.44-1.52L556.44-1.52Q554.32-3.64 554.32-7.52L554.32-7.52L554.32-7.52Q554.32-13.56 557.60-17.24L557.60-17.24L557.60-17.24Q561.12-21.20 567.24-21.20L567.24-21.20L567.24-21.20Q571.04-21.20 572.92-19.60L572.92-19.60L572.92-19.60Q574.32-18.40 574.32-16.44L574.32-16.44L574.32-16.44Q574.32-9.40 562.16-9.40L562.16-9.40L562.16-9.40Q562.00-8.36 562.00-7.48L562.00-7.48L562.00-7.48Q562.00-5.64 562.82-4.94L562.82-4.94L562.82-4.94Q563.64-4.24 565.16-4.24L565.16-4.24L565.16-4.24Q566.68-4.24 568.30-4.94L568.30-4.94L568.30-4.94Q569.92-5.64 570.60-6.76ZM562.44-11.12L562.44-11.12L562.44-11.12Q565.28-11.12 566.92-12.88L566.92-12.88L566.92-12.88Q568.56-14.56 568.56-17.24L568.56-17.24L568.56-17.24Q568.56-18.16 568.22-18.66L568.22-18.66L568.22-18.66Q567.88-19.16 567.20-19.16L567.20-19.16L567.20-19.16Q566.52-19.16 565.94-18.90L565.94-18.90L565.94-18.90Q565.36-18.64 564.76-17.76L564.76-17.76L564.76-17.76Q563.28-15.76 562.44-11.12ZM574.60-2.36L574.60-2.36L574.60-2.36Q574.60-3.88 575.74-4.70L575.74-4.70L575.74-4.70Q576.88-5.52 578.56-5.52L578.56-5.52L578.56-5.52Q580.24-5.52 581.30-4.70L581.30-4.70L581.30-4.70Q582.36-3.88 582.36-2.36L582.36-2.36L582.36-2.36Q582.36-0.84 581.18 0L581.18 0L581.18 0Q580.00 0.84 578.32 0.84L578.32 0.84L578.32 0.84Q576.64 0.84 575.62 0L575.62 0L575.62 0Q574.60-0.84 574.60-2.36ZM576.76-9.88L576.76-9.88L576.76-9.88Q576.76-10.16 576.84-10.56L576.84-10.56L579.96-26.64L579.96-26.64Q581.44-27.20 583.20-27.20L583.20-27.20L583.20-27.20Q584.96-27.20 585.88-26.08L585.88-26.08L585.88-26.08Q586.80-24.96 586.80-23.30L586.80-23.30L586.80-23.30Q586.80-21.64 586.16-19.78L586.16-19.78L586.16-19.78Q585.52-17.92 584.74-16.04L584.74-16.04L584.74-16.04Q583.96-14.16 583.30-12.22L583.30-12.22L583.30-12.22Q582.64-10.28 582.60-8.24L582.60-8.24L582.60-8.24Q581.68-7.20 580.08-7.20L580.08-7.20L580.08-7.20Q578.48-7.20 577.62-7.94L577.62-7.94L577.62-7.94Q576.76-8.68 576.76-9.88Z" fill="url(#editing-rainbow-gradient)"></path></g></g><style>text {
  font-size: 64px;
  font-family: Arial Black;
  dominant-baseline: central;
  text-anchor: middle;
}</style></svg>